ffmpeg started on 2026-01-19 at 12:14:45
Report written to "D:\Convert\FFMetrics\reports\ssim_report-6.txt"
Log level: 32
Command line:
ffmpeg -hide_banner -nostdin -r 24000/1001 -i "F:\\Convert\\files\\[DC] Make Heroine ga Oosugiru - 07_Telegram_HEVC(175).mkv" -r 24000/1001 -i "F:\\Convert\\files\\[DC] Make Heroine ga Oosugiru - 07_Telegram.mp4" -lavfi "[0:v]settb=AVTB,setpts=PTS-STARTPTS,format=pix_fmts=yuv420p10le,fps=24000/1001,scale=1920:1080:flags=lanczos:param0=3:out_range=limited:out_color_matrix=bt709:out_chroma_loc=left,setsar=1/1,setdar=(1920/1080)*(1/1),colorspace=format=yuv420p10:range=tv:primaries=bt709:trc=bt709:space=bt709:fast=0[main];[1:v]settb=AVTB,setpts=PTS-STARTPTS,format=pix_fmts=yuv420p,fps=24000/1001,scale=1920:1080:flags=lanczos:param0=3:out_range=limited:out_color_matrix=bt709:out_chroma_loc=left,setsar=1.000,setdar=1.778,colorspace=format=yuv420p:range=tv:primaries=bt709:trc=bt709:space=bt709:fast=0[ref];[main][ref]ssim=eof_action=endall:stats_file='D\\:/Convert/FFMetrics/logs/ssim_logfile-6.txt'" -f null -
Input #0, matroska,webm, from 'F:\Convert\files\[DC] Make Heroine ga Oosugiru - 07_Telegram_HEVC(175).mkv':
  Metadata:
    COMPATIBLE_BRANDS: isomiso2avc1mp41
    MAJOR_BRAND     : isom
    MINOR_VERSION   : 512
    ENCODER         : Lavf61.7.100
  Duration: 00:24:06.79, start: -0.021000, bitrate: 1020 kb/s
  Stream #0:0: Video: hevc (Main 10), yuv420p10le(tv, bt709, progressive), 1920x1080 [SAR 1:1 DAR 16:9], 23.98 fps, 23.98 tbr, 1k tbn (default)
      Metadata:
        HANDLER_NAME    : VideoHandler
        VENDOR_ID       : [0][0][0][0]
        ENCODER         : Lavc61.19.100 libx265
        BPS             : 822969
        DURATION        : 00:24:06.569708333
        NUMBER_OF_FRAMES: 34683
        NUMBER_OF_BYTES : 148810240
        _STATISTICS_WRITING_APP: mkvpropedit v94.0 ('Initiate') 64-bit
        _STATISTICS_WRITING_DATE_UTC: 2026-01-19 07:48:03
        _STATISTICS_TAGS: BPS DURATION NUMBER_OF_FRAMES NUMBER_OF_BYTES
  Stream #0:1: Audio: aac (LC), 48000 Hz, stereo, fltp (default)
      Metadata:
        HANDLER_NAME    : SoundHandler
        VENDOR_ID       : [0][0][0][0]
        ENCODER         : Lavc61.19.100 aac
        BPS             : 193194
        DURATION        : 00:24:06.784000000
        NUMBER_OF_FRAMES: 67819
        NUMBER_OF_BYTES : 34938755
        _STATISTICS_WRITING_APP: mkvpropedit v94.0 ('Initiate') 64-bit
        _STATISTICS_WRITING_DATE_UTC: 2026-01-19 07:48:03
        _STATISTICS_TAGS: BPS DURATION NUMBER_OF_FRAMES NUMBER_OF_BYTES
Input #1, mov,mp4,m4a,3gp,3g2,mj2, from 'F:\Convert\files\[DC] Make Heroine ga Oosugiru - 07_Telegram.mp4':
  Metadata:
    major_brand     : isom
    minor_version   : 512
    compatible_brands: isomiso2avc1mp41
    encoder         : Lavf60.16.100
  Duration: 00:24:06.74, start: 0.000000, bitrate: 3764 kb/s
  Stream #1:0[0x1](und): Video: h264 (High) (avc1 / 0x31637661), yuv420p(tv, bt709, progressive), 1920x1080 [SAR 1:1 DAR 16:9], 3616 kb/s, 23.98 fps, 23.98 tbr, 24k tbn (default)
      Metadata:
        handler_name    : VideoHandler
        vendor_id       : [0][0][0][0]
        encoder         : Lavc60.31.102 h264_qsv
  Stream #1:1[0x2](und): Audio: aac (HE-AACv2) (mp4a / 0x6134706D), 48000 Hz, stereo, fltp, 144 kb/s (default)
      Metadata:
        handler_name    : SoundHandler
        vendor_id       : [0][0][0][0]
Stream mapping:
  Stream #0:0 (hevc) -> settb:default
  Stream #1:0 (h264) -> settb:default
  ssim:default -> Stream #0:0 (wrapped_avframe)
  Stream #0:1 -> #0:1 (aac (native) -> pcm_s16le (native))
Output #0, null, to 'pipe:':
  Metadata:
    COMPATIBLE_BRANDS: isomiso2avc1mp41
    MAJOR_BRAND     : isom
    MINOR_VERSION   : 512
    encoder         : Lavf61.7.100
  Stream #0:0: Video: wrapped_avframe, yuv420p10le(tv, bt709, progressive), 1920x1080 [SAR 1:1 DAR 16:9], q=2-31, 200 kb/s, 23.98 fps, 23.98 tbn
      Metadata:
        encoder         : Lavc61.19.100 wrapped_avframe
  Stream #0:1: Audio: pcm_s16le, 48000 Hz, stereo, s16, 1536 kb/s (default)
      Metadata:
        HANDLER_NAME    : SoundHandler
        VENDOR_ID       : [0][0][0][0]
        _STATISTICS_TAGS: BPS DURATION NUMBER_OF_FRAMES NUMBER_OF_BYTES
        BPS             : 193194
        DURATION        : 00:24:06.784000000
        NUMBER_OF_FRAMES: 67819
        NUMBER_OF_BYTES : 34938755
        _STATISTICS_WRITING_APP: mkvpropedit v94.0 ('Initiate') 64-bit
        _STATISTICS_WRITING_DATE_UTC: 2026-01-19 07:48:03
        encoder         : Lavc61.19.100 pcm_s16le
frame=  136 fps=0.0 q=-0.0 size=N/A time=00:00:05.67 bitrate=N/A speed=  11x    frame=  320 fps=311 q=-0.0 size=N/A time=00:00:13.34 bitrate=N/A speed=  13x    frame=  501 fps=325 q=-0.0 size=N/A time=00:00:20.89 bitrate=N/A speed=13.6x    frame=  703 fps=341 q=-0.0 size=N/A time=00:00:29.32 bitrate=N/A speed=14.2x    frame=  887 fps=345 q=-0.0 size=N/A time=00:00:36.99 bitrate=N/A speed=14.4x    frame= 1022 fps=330 q=-0.0 size=N/A time=00:00:42.62 bitrate=N/A speed=13.8x    frame= 1191 fps=330 q=-0.0 size=N/A time=00:00:49.67 bitrate=N/A speed=13.8x    frame= 1355 fps=328 q=-0.0 size=N/A time=00:00:56.51 bitrate=N/A speed=13.7x    frame= 1520 fps=326 q=-0.0 size=N/A time=00:01:03.39 bitrate=N/A speed=13.6x    frame= 1662 fps=321 q=-0.0 size=N/A time=00:01:09.31 bitrate=N/A speed=13.4x    frame= 1825 fps=321 q=-0.0 size=N/A time=00:01:16.11 bitrate=N/A speed=13.4x    frame= 1998 fps=322 q=-0.0 size=N/A time=00:01:23.33 bitrate=N/A speed=13.4x    frame= 2099 fps=312 q=-0.0 size=N/A time=00:01:27.54 bitrate=N/A speed=  13x    frame= 2250 fps=311 q=-0.0 size=N/A time=00:01:33.84 bitrate=N/A speed=  13x    frame= 2405 fps=310 q=-0.0 size=N/A time=00:01:40.30 bitrate=N/A speed=12.9x    frame= 2538 fps=307 q=-0.0 size=N/A time=00:01:45.85 bitrate=N/A speed=12.8x    frame= 2701 fps=308 q=-0.0 size=N/A time=00:01:52.65 bitrate=N/A speed=12.8x    frame= 2878 fps=310 q=-0.0 size=N/A time=00:02:00.03 bitrate=N/A speed=12.9x    frame= 3060 fps=312 q=-0.0 size=N/A time=00:02:07.62 bitrate=N/A speed=  13x    frame= 3259 fps=316 q=-0.0 size=N/A time=00:02:15.92 bitrate=N/A speed=13.2x    frame= 3448 fps=318 q=-0.0 size=N/A time=00:02:23.81 bitrate=N/A speed=13.3x    frame= 3645 fps=321 q=-0.0 size=N/A time=00:02:32.02 bitrate=N/A speed=13.4x    frame= 3826 fps=322 q=-0.0 size=N/A time=00:02:39.57 bitrate=N/A speed=13.4x    frame= 4018 fps=324 q=-0.0 size=N/A time=00:02:47.58 bitrate=N/A speed=13.5x    frame= 4221 fps=327 q=-0.0 size=N/A time=00:02:56.05 bitrate=N/A speed=13.6x    frame= 4404 fps=328 q=-0.0 size=N/A time=00:03:03.68 bitrate=N/A speed=13.7x    frame= 4594 fps=330 q=-0.0 size=N/A time=00:03:11.60 bitrate=N/A speed=13.8x    frame= 4784 fps=331 q=-0.0 size=N/A time=00:03:19.53 bitrate=N/A speed=13.8x    frame= 4974 fps=332 q=-0.0 size=N/A time=00:03:27.45 bitrate=N/A speed=13.9x    frame= 5159 fps=333 q=-0.0 size=N/A time=00:03:35.17 bitrate=N/A speed=13.9x    frame= 5348 fps=334 q=-0.0 size=N/A time=00:03:43.05 bitrate=N/A speed=13.9x    frame= 5545 fps=336 q=-0.0 size=N/A time=00:03:51.27 bitrate=N/A speed=  14x    frame= 5737 fps=337 q=-0.0 size=N/A time=00:03:59.28 bitrate=N/A speed=  14x    frame= 5926 fps=338 q=-0.0 size=N/A time=00:04:07.16 bitrate=N/A speed=14.1x    frame= 6117 fps=339 q=-0.0 size=N/A time=00:04:15.12 bitrate=N/A speed=14.1x    frame= 6306 fps=339 q=-0.0 size=N/A time=00:04:23.01 bitrate=N/A speed=14.2x    frame= 6500 fps=340 q=-0.0 size=N/A time=00:04:31.10 bitrate=N/A speed=14.2x    frame= 6689 fps=341 q=-0.0 size=N/A time=00:04:38.98 bitrate=N/A speed=14.2x    frame= 6881 fps=342 q=-0.0 size=N/A time=00:04:46.99 bitrate=N/A speed=14.3x    frame= 7060 fps=342 q=-0.0 size=N/A time=00:04:54.46 bitrate=N/A speed=14.3x    frame= 7244 fps=342 q=-0.0 size=N/A time=00:05:02.13 bitrate=N/A speed=14.3x    frame= 7431 fps=343 q=-0.0 size=N/A time=00:05:09.93 bitrate=N/A speed=14.3x    frame= 7607 fps=343 q=-0.0 size=N/A time=00:05:17.27 bitrate=N/A speed=14.3x    frame= 7792 fps=343 q=-0.0 size=N/A time=00:05:24.99 bitrate=N/A speed=14.3x    frame= 7976 fps=344 q=-0.0 size=N/A time=00:05:32.66 bitrate=N/A speed=14.3x    frame= 8162 fps=344 q=-0.0 size=N/A time=00:05:40.42 bitrate=N/A speed=14.3x    frame= 8351 fps=344 q=-0.0 size=N/A time=00:05:48.30 bitrate=N/A speed=14.4x    frame= 8543 fps=345 q=-0.0 size=N/A time=00:05:56.31 bitrate=N/A speed=14.4x    frame= 8732 fps=345 q=-0.0 size=N/A time=00:06:04.19 bitrate=N/A speed=14.4x    frame= 8921 fps=346 q=-0.0 size=N/A time=00:06:12.08 bitrate=N/A speed=14.4x    frame= 9116 fps=346 q=-0.0 size=N/A time=00:06:20.21 bitrate=N/A speed=14.4x    frame= 9310 fps=347 q=-0.0 size=N/A time=00:06:28.30 bitrate=N/A speed=14.5x    frame= 9496 fps=347 q=-0.0 size=N/A time=00:06:36.06 bitrate=N/A speed=14.5x    frame= 9681 fps=348 q=-0.0 size=N/A time=00:06:43.77 bitrate=N/A speed=14.5x    frame= 9875 fps=348 q=-0.0 size=N/A time=00:06:51.86 bitrate=N/A speed=14.5x    frame=10069 fps=348 q=-0.0 size=N/A time=00:06:59.96 bitrate=N/A speed=14.5x    frame=10256 fps=349 q=-0.0 size=N/A time=00:07:07.76 bitrate=N/A speed=14.5x    frame=10447 fps=349 q=-0.0 size=N/A time=00:07:15.72 bitrate=N/A speed=14.6x    frame=10640 fps=350 q=-0.0 size=N/A time=00:07:23.77 bitrate=N/A speed=14.6x    frame=10822 fps=350 q=-0.0 size=N/A time=00:07:31.36 bitrate=N/A speed=14.6x    frame=11012 fps=350 q=-0.0 size=N/A time=00:07:39.29 bitrate=N/A speed=14.6x    frame=11202 fps=350 q=-0.0 size=N/A time=00:07:47.21 bitrate=N/A speed=14.6x    frame=11386 fps=350 q=-0.0 size=N/A time=00:07:54.89 bitrate=N/A speed=14.6x    frame=11579 fps=351 q=-0.0 size=N/A time=00:08:02.94 bitrate=N/A speed=14.6x    frame=11773 fps=351 q=-0.0 size=N/A time=00:08:11.03 bitrate=N/A speed=14.6x    frame=11966 fps=351 q=-0.0 size=N/A time=00:08:19.08 bitrate=N/A speed=14.7x    frame=12157 fps=352 q=-0.0 size=N/A time=00:08:27.04 bitrate=N/A speed=14.7x    frame=12350 fps=352 q=-0.0 size=N/A time=00:08:35.09 bitrate=N/A speed=14.7x    frame=12555 fps=353 q=-0.0 size=N/A time=00:08:43.64 bitrate=N/A speed=14.7x    frame=12742 fps=353 q=-0.0 size=N/A time=00:08:51.44 bitrate=N/A speed=14.7x    frame=12936 fps=353 q=-0.0 size=N/A time=00:08:59.53 bitrate=N/A speed=14.7x    frame=13123 fps=353 q=-0.0 size=N/A time=00:09:07.33 bitrate=N/A speed=14.7x    frame=13305 fps=353 q=-0.0 size=N/A time=00:09:14.92 bitrate=N/A speed=14.7x    frame=13493 fps=353 q=-0.0 size=N/A time=00:09:22.77 bitrate=N/A speed=14.7x    frame=13689 fps=354 q=-0.0 size=N/A time=00:09:30.94 bitrate=N/A speed=14.8x    frame=13883 fps=354 q=-0.0 size=N/A time=00:09:39.03 bitrate=N/A speed=14.8x    frame=14071 fps=354 q=-0.0 size=N/A time=00:09:46.87 bitrate=N/A speed=14.8x    frame=14245 fps=354 q=-0.0 size=N/A time=00:09:54.13 bitrate=N/A speed=14.8x    frame=14435 fps=354 q=-0.0 size=N/A time=00:10:02.05 bitrate=N/A speed=14.8x    frame=14630 fps=354 q=-0.0 size=N/A time=00:10:10.19 bitrate=N/A speed=14.8x    frame=14815 fps=354 q=-0.0 size=N/A time=00:10:17.90 bitrate=N/A speed=14.8x    frame=15006 fps=355 q=-0.0 size=N/A time=00:10:25.87 bitrate=N/A speed=14.8x    frame=15168 fps=354 q=-0.0 size=N/A time=00:10:32.63 bitrate=N/A speed=14.8x    frame=15361 fps=354 q=-0.0 size=N/A time=00:10:40.68 bitrate=N/A speed=14.8x    frame=15548 fps=354 q=-0.0 size=N/A time=00:10:48.48 bitrate=N/A speed=14.8x    frame=15735 fps=355 q=-0.0 size=N/A time=00:10:56.28 bitrate=N/A speed=14.8x    frame=15924 fps=355 q=-0.0 size=N/A time=00:11:04.16 bitrate=N/A speed=14.8x    frame=16124 fps=355 q=-0.0 size=N/A time=00:11:12.50 bitrate=N/A speed=14.8x    frame=16320 fps=355 q=-0.0 size=N/A time=00:11:20.68 bitrate=N/A speed=14.8x    frame=16503 fps=355 q=-0.0 size=N/A time=00:11:28.31 bitrate=N/A speed=14.8x    frame=16701 fps=356 q=-0.0 size=N/A time=00:11:36.57 bitrate=N/A speed=14.8x    frame=16893 fps=356 q=-0.0 size=N/A time=00:11:44.57 bitrate=N/A speed=14.8x    frame=17085 fps=356 q=-0.0 size=N/A time=00:11:52.58 bitrate=N/A speed=14.9x    frame=17271 fps=356 q=-0.0 size=N/A time=00:12:00.34 bitrate=N/A speed=14.9x    frame=17470 fps=356 q=-0.0 size=N/A time=00:12:08.64 bitrate=N/A speed=14.9x    frame=17657 fps=356 q=-0.0 size=N/A time=00:12:16.44 bitrate=N/A speed=14.9x    frame=17849 fps=357 q=-0.0 size=N/A time=00:12:24.45 bitrate=N/A speed=14.9x    frame=18037 fps=357 q=-0.0 size=N/A time=00:12:32.29 bitrate=N/A speed=14.9x    frame=18227 fps=357 q=-0.0 size=N/A time=00:12:40.21 bitrate=N/A speed=14.9x    frame=18408 fps=357 q=-0.0 size=N/A time=00:12:47.76 bitrate=N/A speed=14.9x    frame=18593 fps=357 q=-0.0 size=N/A time=00:12:55.48 bitrate=N/A speed=14.9x    frame=18796 fps=357 q=-0.0 size=N/A time=00:13:03.94 bitrate=N/A speed=14.9x    frame=18986 fps=357 q=-0.0 size=N/A time=00:13:11.87 bitrate=N/A speed=14.9x    frame=19175 fps=357 q=-0.0 size=N/A time=00:13:19.75 bitrate=N/A speed=14.9x    frame=19374 fps=358 q=-0.0 size=N/A time=00:13:28.05 bitrate=N/A speed=14.9x    frame=19565 fps=358 q=-0.0 size=N/A time=00:13:36.02 bitrate=N/A speed=14.9x    frame=19760 fps=358 q=-0.0 size=N/A time=00:13:44.15 bitrate=N/A speed=14.9x    frame=19963 fps=358 q=-0.0 size=N/A time=00:13:52.62 bitrate=N/A speed=14.9x    frame=20166 fps=358 q=-0.0 size=N/A time=00:14:01.09 bitrate=N/A speed=  15x    frame=20356 fps=359 q=-0.0 size=N/A time=00:14:09.01 bitrate=N/A speed=  15x    frame=20540 fps=359 q=-0.0 size=N/A time=00:14:16.68 bitrate=N/A speed=  15x    frame=20726 fps=359 q=-0.0 size=N/A time=00:14:24.44 bitrate=N/A speed=  15x    frame=20922 fps=359 q=-0.0 size=N/A time=00:14:32.62 bitrate=N/A speed=  15x    frame=21114 fps=359 q=-0.0 size=N/A time=00:14:40.62 bitrate=N/A speed=  15x    frame=21314 fps=359 q=-0.0 size=N/A time=00:14:48.97 bitrate=N/A speed=  15x    frame=21504 fps=359 q=-0.0 size=N/A time=00:14:56.89 bitrate=N/A speed=  15x    frame=21695 fps=359 q=-0.0 size=N/A time=00:15:04.86 bitrate=N/A speed=  15x    frame=21880 fps=359 q=-0.0 size=N/A time=00:15:12.57 bitrate=N/A speed=  15x    frame=22086 fps=360 q=-0.0 size=N/A time=00:15:21.17 bitrate=N/A speed=  15x    frame=22276 fps=360 q=-0.0 size=N/A time=00:15:29.09 bitrate=N/A speed=  15x    frame=22466 fps=360 q=-0.0 size=N/A time=00:15:37.01 bitrate=N/A speed=  15x    frame=22663 fps=360 q=-0.0 size=N/A time=00:15:45.23 bitrate=N/A speed=  15x    frame=22849 fps=360 q=-0.0 size=N/A time=00:15:52.99 bitrate=N/A speed=  15x    frame=23034 fps=360 q=-0.0 size=N/A time=00:16:00.70 bitrate=N/A speed=  15x    frame=23226 fps=360 q=-0.0 size=N/A time=00:16:08.71 bitrate=N/A speed=  15x    frame=23422 fps=360 q=-0.0 size=N/A time=00:16:16.89 bitrate=N/A speed=  15x    frame=23611 fps=360 q=-0.0 size=N/A time=00:16:24.77 bitrate=N/A speed=  15x    frame=23805 fps=360 q=-0.0 size=N/A time=00:16:32.86 bitrate=N/A speed=  15x    frame=23993 fps=360 q=-0.0 size=N/A time=00:16:40.70 bitrate=N/A speed=  15x    frame=24181 fps=360 q=-0.0 size=N/A time=00:16:48.54 bitrate=N/A speed=  15x    frame=24363 fps=360 q=-0.0 size=N/A time=00:16:56.14 bitrate=N/A speed=  15x    frame=24558 fps=361 q=-0.0 size=N/A time=00:17:04.27 bitrate=N/A speed=  15x    frame=24758 fps=361 q=-0.0 size=N/A time=00:17:12.61 bitrate=N/A speed=  15x    frame=24948 fps=361 q=-0.0 size=N/A time=00:17:20.53 bitrate=N/A speed=  15x    frame=25140 fps=361 q=-0.0 size=N/A time=00:17:28.54 bitrate=N/A speed=15.1x    frame=25340 fps=361 q=-0.0 size=N/A time=00:17:36.88 bitrate=N/A speed=15.1x    frame=25530 fps=361 q=-0.0 size=N/A time=00:17:44.81 bitrate=N/A speed=15.1x    frame=25724 fps=361 q=-0.0 size=N/A time=00:17:52.90 bitrate=N/A speed=15.1x    frame=25918 fps=361 q=-0.0 size=N/A time=00:18:00.99 bitrate=N/A speed=15.1x    frame=26113 fps=361 q=-0.0 size=N/A time=00:18:09.12 bitrate=N/A speed=15.1x    frame=26304 fps=362 q=-0.0 size=N/A time=00:18:17.09 bitrate=N/A speed=15.1x    frame=26506 fps=362 q=-0.0 size=N/A time=00:18:25.52 bitrate=N/A speed=15.1x    frame=26696 fps=362 q=-0.0 size=N/A time=00:18:33.44 bitrate=N/A speed=15.1x    frame=26892 fps=362 q=-0.0 size=N/A time=00:18:41.62 bitrate=N/A speed=15.1x    frame=27068 fps=362 q=-0.0 size=N/A time=00:18:48.96 bitrate=N/A speed=15.1x    frame=27255 fps=362 q=-0.0 size=N/A time=00:18:56.76 bitrate=N/A speed=15.1x    frame=27437 fps=362 q=-0.0 size=N/A time=00:19:04.35 bitrate=N/A speed=15.1x    frame=27628 fps=362 q=-0.0 size=N/A time=00:19:12.31 bitrate=N/A speed=15.1x    frame=27816 fps=362 q=-0.0 size=N/A time=00:19:20.15 bitrate=N/A speed=15.1x    frame=28014 fps=362 q=-0.0 size=N/A time=00:19:28.41 bitrate=N/A speed=15.1x    frame=28202 fps=362 q=-0.0 size=N/A time=00:19:36.25 bitrate=N/A speed=15.1x    frame=28389 fps=362 q=-0.0 size=N/A time=00:19:44.05 bitrate=N/A speed=15.1x    frame=28585 fps=362 q=-0.0 size=N/A time=00:19:52.23 bitrate=N/A speed=15.1x    frame=28766 fps=362 q=-0.0 size=N/A time=00:19:59.78 bitrate=N/A speed=15.1x    frame=28941 fps=362 q=-0.0 size=N/A time=00:20:07.08 bitrate=N/A speed=15.1x    frame=29113 fps=362 q=-0.0 size=N/A time=00:20:14.25 bitrate=N/A speed=15.1x    frame=29300 fps=362 q=-0.0 size=N/A time=00:20:22.05 bitrate=N/A speed=15.1x    frame=29478 fps=362 q=-0.0 size=N/A time=00:20:29.47 bitrate=N/A speed=15.1x    frame=29654 fps=361 q=-0.0 size=N/A time=00:20:36.81 bitrate=N/A speed=15.1x    frame=29832 fps=361 q=-0.0 size=N/A time=00:20:44.24 bitrate=N/A speed=15.1x    frame=29996 fps=361 q=-0.0 size=N/A time=00:20:51.08 bitrate=N/A speed=15.1x    frame=30184 fps=361 q=-0.0 size=N/A time=00:20:58.92 bitrate=N/A speed=15.1x    frame=30368 fps=361 q=-0.0 size=N/A time=00:21:06.59 bitrate=N/A speed=15.1x    frame=30561 fps=361 q=-0.0 size=N/A time=00:21:14.64 bitrate=N/A speed=15.1x    frame=30745 fps=361 q=-0.0 size=N/A time=00:21:22.32 bitrate=N/A speed=15.1x    frame=30948 fps=361 q=-0.0 size=N/A time=00:21:30.78 bitrate=N/A speed=15.1x    frame=31137 fps=361 q=-0.0 size=N/A time=00:21:38.67 bitrate=N/A speed=15.1x    frame=31321 fps=361 q=-0.0 size=N/A time=00:21:46.34 bitrate=N/A speed=15.1x    frame=31512 fps=361 q=-0.0 size=N/A time=00:21:54.31 bitrate=N/A speed=15.1x    frame=31694 fps=361 q=-0.0 size=N/A time=00:22:01.90 bitrate=N/A speed=15.1x    frame=31869 fps=361 q=-0.0 size=N/A time=00:22:09.20 bitrate=N/A speed=15.1x    frame=32038 fps=361 q=-0.0 size=N/A time=00:22:16.25 bitrate=N/A speed=15.1x    frame=32231 fps=361 q=-0.0 size=N/A time=00:22:24.30 bitrate=N/A speed=15.1x    frame=32410 fps=361 q=-0.0 size=N/A time=00:22:31.76 bitrate=N/A speed=15.1x    frame=32591 fps=361 q=-0.0 size=N/A time=00:22:39.31 bitrate=N/A speed=15.1x    frame=32737 fps=361 q=-0.0 size=N/A time=00:22:45.40 bitrate=N/A speed=  15x    frame=32893 fps=360 q=-0.0 size=N/A time=00:22:51.91 bitrate=N/A speed=  15x    frame=33075 fps=360 q=-0.0 size=N/A time=00:22:59.50 bitrate=N/A speed=  15x    frame=33248 fps=360 q=-0.0 size=N/A time=00:23:06.71 bitrate=N/A speed=  15x    frame=33417 fps=360 q=-0.0 size=N/A time=00:23:13.76 bitrate=N/A speed=  15x    frame=33572 fps=359 q=-0.0 size=N/A time=00:23:20.23 bitrate=N/A speed=  15x    frame=33719 fps=359 q=-0.0 size=N/A time=00:23:26.36 bitrate=N/A speed=  15x    frame=33838 fps=358 q=-0.0 size=N/A time=00:23:31.32 bitrate=N/A speed=14.9x    frame=33981 fps=358 q=-0.0 size=N/A time=00:23:37.29 bitrate=N/A speed=14.9x    frame=34141 fps=358 q=-0.0 size=N/A time=00:23:43.96 bitrate=N/A speed=14.9x    frame=34290 fps=357 q=-0.0 size=N/A time=00:23:50.17 bitrate=N/A speed=14.9x    frame=34423 fps=357 q=-0.0 size=N/A time=00:23:55.72 bitrate=N/A speed=14.9x    frame=34592 fps=357 q=-0.0 size=N/A time=00:24:02.77 bitrate=N/A speed=14.9x    [Parsed_ssim_16 @ 000001e06c13cc80] SSIM Y:0.994078 (22.275535) U:0.993970 (22.197103) V:0.993583 (21.926788) All:0.993978 (22.202440)
[out#0/null @ 000001e05ebb8a00] video:14903KiB audio:271276KiB subtitle:0KiB other streams:0KiB global headers:0KiB muxing overhead: unknown
frame=34683 fps=357 q=-0.0 Lsize=N/A time=00:24:06.57 bitrate=N/A speed=14.9x    
